# AST/ASF file generated using VICON BodyLanguage
# -----------------------------------------------
:version 1.10
:name VICON
:units
  mass 1.0
  length 0.45
  angle deg
:documentation
   .ast/.asf automatically generated from VICON data using
   VICON BodyBuilder and BodyLanguage model FoxedUp or BRILLIANT.MOD
:root
   order TX TY TZ RX RY RZ
   axis XYZ
   position 0 0 0  
   orientation 0 -0 0 
:bonedata
  begin
     id 1 
     name lhipjoint
     direction 0.500677 -0.737119 0.453848 
     length 2.34727 
     axis 0 -0 0  XYZ
  end
  begin
     id 2 
     name lfemur
     direction 0.34202 -0.939693 0  
     length 7.53653  
     axis 0 -0 20  XYZ
    dof rx ry rz
    limits (-160.0 20.0)
           (-70.0 70.0)
           (-60.0 70.0)
  end
  begin
     id 3 
     name ltibia
     direction 0.34202 -0.939693 0   
     length 6.85572   
     axis 0 -0 20   XYZ
    dof rx
    limits (-10.0 170.0)
  end
  begin
     id 4 
     name lfoot
     direction 0.155313 -0.426718 0.890949   
     length 2.18324   
     axis -90 -1.13533e-015 20   XYZ
    dof rx rz
    limits (-45.0 90.0)
           (-70.0 20.0)
  end
  begin
     id 5 
     name ltoes
     direction 1.53474e-011 -4.21647e-011 1   
     length 1.06748   
     axis -90 -1.13533e-015 20   XYZ
    dof rx
    limits (-90.0 20.0)
  end
  begin
     id 6 
     name rhipjoint
     direction -0.632471 -0.659587 0.406111   
     length 2.62319  
     axis 0 -0 0  XYZ 
  end
  begin
     id 7 
     name rfemur
     direction -0.34202 -0.939693 0   
     length 7.21735   
     axis 0 -0 -20   XYZ
    dof rx ry rz
    limits (-160.0 20.0)
           (-70.0 70.0)
           (-70.0 60.0)
  end
  begin
     id 8 
     name rtibia
     direction -0.34202 -0.939693 0   
     length 7.02558   
     axis 0 -0 -20   XYZ
    dof rx
    limits (-10.0 170.0)
 end
 begin
     id 9 
     name rfoot
     direction -0.16057 -0.441164 0.882945   
     length 2.10014  
     axis -90 1.13533e-015 -20   XYZ
    dof rx rz
    limits (-45.0 90.0)
           (-20.0 70.0)
  end
  begin
     id 10 
     name rtoes
     direction -1.53553e-011 -4.2192e-011 1   
     length 1.02554   
     axis -90 1.13533e-015 -20   XYZ
    dof rx
    limits (-90.0 20.0)
  end
  begin
     id 11 
     name lowerback
     direction 0.0401429 0.998861 -0.0258085   
     length 1.80848   
     axis 0 -0 0   XYZ
    dof rx ry rz
    limits (-20.0 45.0)
           (-30.0 30.0)
           (-30.0 30.0)
  end
  begin
     id 12 
     name upperback
     direction -0.0130978 0.999914 -0.000352645   
     length 1.8116   
     axis 0 -0 0   XYZ
    dof rx ry rz
    limits (-20.0 45.0)
           (-30.0 30.0)
           (-30.0 30.0)
  end
  begin
     id 13 
     name thorax
     direction -0.0300198 0.999453 0.0138573   
     length 1.81778   
     axis 0 -0 0   XYZ
    dof rx ry rz
    limits (-20.0 45.0)
           (-30.0 30.0)
           (-30.0 30.0)
  end
  begin
     id 14 
     name lowerneck
     direction -0.0401726 0.999191 -0.00173647   
     length 2.10594   
     axis 0 -0 0   XYZ
    dof rx ry rz
    limits (-20.0 45.0)
           (-30.0 30.0)
           (-30.0 30.0)
  end
  begin
     id 15 
     name upperneck
     direction 0.0119835 0.998501 0.0534085   
     length 2.07325   
     axis 0 -0 0   XYZ
    dof rx ry rz
    limits (-20.0 45.0)
           (-30.0 30.0)
           (-30.0 30.0)
  end
  begin
     id 16
     name head
     direction 0.00628309 0.999826 0.0175921  
     length 2.15096  
     axis 0 -0 0   XYZ
    dof rx ry rz
    limits (-20.0 45.0)
           (-30.0 30.0)
           (-30.0 30.0)
  end
  begin
     id 17 
     name lclavicle
     direction 0.895501 0.429681 -0.115981  
     length 4.18092  
     axis 0 -0 0   XYZ
    dof ry rz
    limits (-20.0 10.0)
           (0.0 20.0)
  end
  begin
     id 18 
     name lhumerus
     direction 1 -4.48961e-011 -3.38433e-028   
     length 5.77237   
     axis 180 -30 -90   XYZ
    dof rx ry rz
    limits (-60.0 90.0)
           (-90.0 90.0)
           (-90.0 90.0)
  end
  begin
     id 19
     name lradius
     direction 1 -4.4901e-011 1.11983e-026   
     length 2.91878   
     axis 180 -30 -90   XYZ
    dof rx
    limits (-10.0 170.0)
  end
  begin
     id 20
     name lwrist
     direction 1 -4.48934e-011 1.88176e-026   
     length 1.45939   
     axis -1.23311e-014 90 90   XYZ
    dof ry
    limits (-180.0 0.0)
 end
  begin
     id 21 
     name lhand
     direction 1 -4.4895e-011 3.76352e-026   
     length 1.06566   
     axis -2.40147e-014 90 90   XYZ
    dof rx rz
    limits (-90.0 90.0)
           (-45.0 45.0)
  end
  begin
     id 22 
     name lfingers
     direction 1 -4.49005e-011 7.52705e-026   
     length 0.859162   
     axis -4.80295e-014 90 90   XYZ
    dof rx
    limits (0.0 90.0)
  end
  begin
     id 23
     name lthumb
     direction 0.707107 -6.34885e-011 0.707107   
     length 1.23359   
     axis -90 45 -9.86935e-015   XYZ
    dof rx rz
    limits (-45.0 45.0)
           (-45.0 45.0)
  end
  begin
     id 24 
     name rclavicle
     direction -0.91006 0.40451 -0.0903492   
     length 4.23293  
     axis 0 -0 0   XYZ 
    dof ry rz
    limits (-10.0 20.0)
           (-20.0 0.0)
  end
  begin
     id 25 
     name rhumerus
     direction -1 -4.4897e-011 1.7415e-027  
     length 5.49854   
     axis 180 30 90   XYZ
    dof rx ry rz
    limits (-90.0 60.0)
           (-90.0 90.0)
           (-90.0 90.0)
  end
  begin
     id 26 
     name rradius
     direction -1 -4.48963e-011 1.21259e-026   
     length 3.1186   
     axis 180 30 90   XYZ
    dof rx
    limits (-10.0 170.0)
  end
  begin
     id 27 
     name rwrist
     direction -1 -4.48967e-011 1.88176e-026   
     length 1.5593   
     axis -1.23311e-014 -90 -90   XYZ
    dof ry
    limits (-180.0 0.0)
  end
  begin
     id 28
     name rhand
     direction -1 -4.4895e-011 3.76352e-026   
     length 0.71207   
     axis -2.40147e-014 -90 -90   XYZ
    dof rx rz
    limits (-90.0 90.0)
           (-45.0 45.0)
  end
  begin
     id 29
     name rfingers
     direction -1 -4.49005e-011 7.52705e-026   
     length 0.574089   
     axis -4.80295e-014 -90 -90   XYZ
    dof rx
    limits (0.0 90.0)
  end
  begin
     id 30
     name rthumb
     direction -0.707107 -6.34982e-011 0.707107   
     length 0.824281   
     axis -90 -45 9.86935e-015   XYZ
    dof rx rz
    limits (-45.0 45.0)
           (-45.0 45.0)
  end
:hierarchy
  begin
    root lhipjoint rhipjoint lowerback
    lhipjoint lfemur
    lfemur ltibia
    ltibia lfoot
    lfoot ltoes
    rhipjoint rfemur
    rfemur rtibia
    rtibia rfoot
    rfoot rtoes
    lowerback upperback
    upperback thorax
    thorax lowerneck lclavicle rclavicle
    lowerneck upperneck
    upperneck head
    lclavicle lhumerus
    lhumerus lradius
    lradius lwrist
    lwrist lhand lthumb
    lhand lfingers
    rclavicle rhumerus
    rhumerus rradius
    rradius rwrist
    rwrist rhand rthumb
    rhand rfingers
  end

#!OML:ASF C:\ViconDB\ViconDB\414\Spring2016\042216\male.ASF
:FULLY-SPECIFIED
:DEGREES
706
root 32.8936 17.9072 11.9201 886.856 70.1339 1244.98
lowerback 0.620807 -2.27347 6.33266
upperback -1.09842 -2.88194 1.49155
thorax -1.71927 -1.4889 -1.93914
lowerneck -3.20237 -0.962338 -6.25427
upperneck 0.00865666 -1.0815 10.4929
head 0.686878 -0.42059 4.59113
rclavicle 1.66669e-014 -6.04305e-014
rhumerus -22.8309 -5.90619 -78.3375
rradius 31.6264
rwrist 27.1062
rhand 10.2478 -20.1246
rfingers 7.12502
rthumb 35.3613 -46.5955
lclavicle 1.66669e-014 -6.04305e-014
lhumerus -36.3407 17.5796 79.3965
lradius 32.2697
lwrist -16.8302
lhand -7.63779 15.0253
lfingers 7.12502
lthumb 18.2573 44.1884
rfemur -10.5047 6.2857 10.6867
rtibia 23.1356
rfoot -16.1864 -15.7546
rtoes -12.6742
lfemur -4.00043 -10.1463 -17.7906
ltibia 40.5884
lfoot -13.1818 22.749
ltoes -8.35094
707
root 32.9673 17.9102 11.9796 887.151 69.7608 1245.25
lowerback 0.759599 -2.21225 6.29005
upperback -1.16093 -2.79081 1.3875
thorax -1.85747 -1.44963 -2.01777
lowerneck -3.21408 -0.760934 -6.05279
upperneck 0.196042 -0.830221 10.3363
head 0.722789 -0.294087 4.49824
rclavicle 1.18522e-013 6.36111e-015
rhumerus -22.4607 -5.15514 -78.3358
rradius 31.9652
rwrist 26.1514
rhand 10.1447 -20.1664
rfingers 7.12502
rthumb 35.2636 -46.6605
lclavicle 1.18522e-013 6.36111e-015
lhumerus -36.4438 17.3656 79.2435
lradius 32.8771
lwrist -16.378
lhand -7.33635 14.6807
lfingers 7.12502
lthumb 18.5473 43.8165
rfemur -10.1475 6.0864 11.0065
rtibia 22.9904
rfoot -16.5099 -15.8705
rtoes -12.6359
lfemur -4.65478 -10.1341 -17.8075
ltibia 40.482
lfoot -14.5279 23.5185
ltoes -8.26697
708
root 33.041 17.9132 12.0389 887.237 69.4732 1245.49
lowerback 0.944088 -2.09803 6.19577
upperback -1.08205 -2.63346 1.30806
thorax -1.86573 -1.37047 -2.04717
lowerneck -3.23416 -0.631442 -6.1621
upperneck 0.243977 -0.654683 10.3978
head 0.727066 -0.204841 4.54646
rclavicle -5.59455e-014 4.13472e-014
rhumerus -21.9033 -4.90845 -78.1469
rradius 32.1615
rwrist 25.7036
rhand 10.3586 -20.1531
rfingers 7.12502
rthumb 35.4664 -46.599
lclavicle -5.59455e-014 4.13472e-014
lhumerus -36.3236 16.7597 79.5013
lradius 33.5268
lwrist -15.0666
lhand -7.48479 14.6949
lfingers 7.12502
lthumb 18.4045 43.8442
rfemur -9.59303 6.69517 11.3783
rtibia 22.8387
rfoot -17.0262 -16.5838
rtoes -12.3445
lfemur -5.12239 -10.0979 -17.8713
ltibia 40.2555
lfoot -15.3637 24.2626
ltoes -7.31615
709
root 33.1103 17.9175 12.0948 887.28 69.1762 1245.58
lowerback 1.10086 -1.98711 6.10096
upperback -1.05445 -2.48138 1.2016
thorax -1.91314 -1.29627 -2.10412
lowerneck -3.24546 -0.500276 -6.03798
upperneck 0.314825 -0.487511 10.1987
head 0.734022 -0.122955 4.45189
rclavicle 2.70658e-014 -2.22639e-014
rhumerus -21.4019 -4.49016 -77.9981
rradius 32.342
rwrist 25.1251
rhand 9.97336 -20.4749
rfingers 7.12502
rthumb 35.1011 -47.0072
lclavicle 2.70658e-014 -2.22639e-014
lhumerus -36.2951 16.6376 79.5383
lradius 34.1929
lwrist -14.5833
lhand -7.49817 14.6175
lfingers 7.12502
lthumb 18.3916 43.768
rfemur -9.19155 6.93249 11.6598
rtibia 22.7511
rfoot -17.473 -16.9657
rtoes -12.0352
lfemur -5.67334 -10.1625 -17.9689
ltibia 39.9757
lfoot -16.4481 24.8714
ltoes -7.19665
710
root 33.1824 17.9107 12.1452 887.412 68.8525 1245.87
lowerback 1.31571 -1.94916 6.03413
upperback -1.01547 -2.41956 1.16193
thorax -1.98726 -1.2666 -2.10317
lowerneck -3.37597 -0.307665 -5.93825
upperneck 0.591949 -0.247834 9.95095
head 0.823313 -0.00104 4.34837
rclavicle 4.13301e-014 -7.95139e-015
rhumerus -20.823 -4.07175 -77.7903
rradius 32.2747
rwrist 24.8041
rhand 10.3513 -20.4034
rfingers 7.12502
rthumb 35.4594 -46.8509
lclavicle 4.13301e-014 -7.95139e-015
lhumerus -36.2789 16.4605 79.6943
lradius 34.7776
lwrist -13.7643
lhand -7.49043 14.5886
lfingers 7.12502
lthumb 18.3991 43.7384
rfemur -8.64567 7.03999 12.0016
rtibia 22.6289
rfoot -17.9624 -17.2141
rtoes -11.9068
lfemur -6.12082 -10.1183 -18.0576
ltibia 39.658
lfoot -16.9245 25.3774
ltoes -7.68347
711
root 33.254 17.9127 12.2071 887.829 68.3819 1246.26
lowerback 1.37898 -1.91015 5.93632
upperback -1.05796 -2.36763 1.05468
thorax -2.06272 -1.2441 -2.15792
lowerneck -3.36153 -0.171061 -5.87221
upperneck 0.747296 -0.0777988 9.87065
head 0.855015 0.0841725 4.31002
rclavicle -6.91169e-014 5.725e-014
rhumerus -20.3893 -4.10382 -77.667
rradius 32.2508
rwrist 24.7014
rhand 10.595 -20.4687
rfingers 7.12502
rthumb 35.6905 -46.8607
lclavicle -6.91169e-014 5.725e-014
lhumerus -36.2004 16.0261 79.8172
lradius 35.1403
lwrist -12.8897
lhand -7.86827 14.5275
lfingers 7.12502
lthumb 18.0356 43.7113
rfemur -8.29563 7.8013 12.3836
rtibia 22.5337
rfoot -18.7746 -18.0778
rtoes -11.1699
lfemur -6.87532 -10.2047 -17.9747
ltibia 39.3336
lfoot -17.5976 25.388
ltoes -7.65304
712
root 33.3218 17.9039 12.2548 888.686 68.0555 1247.32
lowerback 1.59566 -1.87076 6.27121
upperback -1.03854 -2.29287 0.980266
thorax -2.17581 -1.21464 -2.41679
lowerneck -3.32801 -0.0606864 -5.77592
upperneck 0.871945 0.0576675 9.78492
head 0.876476 0.151548 4.26274
rclavicle -2.67893e-014 -9.54166e-015
rhumerus -19.9094 -4.14153 -77.5207
rradius 32.0254
rwrist 24.8493
rhand 10.6136 -20.473
rfingers 7.12502
rthumb 35.7081 -46.8607
lclavicle -2.67893e-014 -9.54166e-015
lhumerus -36.2138 16.1083 79.8051
lradius 35.5975
lwrist -12.2682
lhand -8.10111 14.4641
lfingers 7.12502
lthumb 17.8116 43.6684
rfemur -7.80667 7.75817 13.0473
rtibia 22.4859
rfoot -19.2697 -18.2498
rtoes -11.0898
lfemur -7.38382 -10.3197 -17.7248
ltibia 38.9891
lfoot -18.0601 25.5035
ltoes -7.73736
713
root 33.393 17.8947 12.3053 888.781 67.7188 1247.58
lowerback 1.79389 -1.85195 6.109
upperback -0.989013 -2.26116 0.949452
thorax -2.22763 -1.19781 -2.35406
lowerneck -3.38706 0.0692745 -5.85578
upperneck 1.02498 0.226066 9.66489
head 0.92166 0.235306 4.24021
rclavicle -1.28899e-014 -1.59028e-015
rhumerus -19.3692 -4.13752 -77.3115
rradius 31.8114
rwrist 25.2612
rhand 10.7805 -20.4398
rfingers 7.12502
rthumb 35.8663 -46.789
lclavicle -1.28899e-014 -1.59028e-015
lhumerus -36.1645 16.6184 79.6449
lradius 35.8803
lwrist -12.7865
lhand -7.6087 14.3581
lfingers 7.12502
lthumb 18.2853 43.5186
rfemur -7.28884 8.09654 13.4108
rtibia 22.4557
rfoot -19.9563 -18.5771
rtoes -10.6901
lfemur -7.85662 -10.2615 -17.7602
ltibia 38.657
lfoot -18.6513 25.3047
ltoes -7.20257
714
root 33.4597 17.89 12.3565 888.797 67.4421 1247.61
lowerback 1.92974 -1.7789 5.89121
upperback -0.9772 -2.16549 0.847942
thorax -2.27857 -1.15027 -2.33755
lowerneck -3.39623 0.200585 -5.81564
upperneck 1.1295 0.394651 9.567
head 0.941975 0.319123 4.20078
rclavicle 4.00551e-014 -3.97569e-014
rhumerus -18.8267 -4.36746 -77.1678
rradius 31.5047
rwrist 25.3353
rhand 10.6843 -20.5747
rfingers 7.12502
rthumb 35.7751 -46.9461
lclavicle 4.00551e-014 -3.97569e-014
lhumerus -36.0568 16.791 79.671
lradius 36.0563
lwrist -12.6422
lhand -7.55745 14.2117
lfingers 7.12502
lthumb 18.3346 43.3677
rfemur -7.03772 7.82705 13.6178
rtibia 22.4714
rfoot -20.4656 -18.3253
rtoes -10.3882
lfemur -8.51973 -10.4143 -17.87
ltibia 38.328
lfoot -19.225 25.3344
ltoes -7.68533
